<svg width="198" height="52" viewBox="0 0 198 52" fill="none" xmlns="http://www.w3.org/2000/svg">
<rect width="197.5" height="52" rx="12" fill="#C1F432"/>
<path d="M74.88 35L68.58 28.7C68.08 29.1 67.505 29.4167 66.855 29.65C66.205 29.8833 65.5134 30 64.78 30C62.9634 30 61.4259 29.3708 60.1675 28.1125C58.9092 26.8542 58.28 25.3167 58.28 23.5C58.28 21.6833 58.9092 20.1458 60.1675 18.8875C61.4259 17.6292 62.9634 17 64.78 17C66.5967 17 68.1342 17.6292 69.3925 18.8875C70.6509 20.1458 71.28 21.6833 71.28 23.5C71.28 24.2333 71.1634 24.925 70.93 25.575C70.6967 26.225 70.38 26.8 69.98 27.3L76.28 33.6L74.88 35ZM64.78 28C66.03 28 67.0925 27.5625 67.9675 26.6875C68.8425 25.8125 69.28 24.75 69.28 23.5C69.28 22.25 68.8425 21.1875 67.9675 20.3125C67.0925 19.4375 66.03 19 64.78 19C63.53 19 62.4675 19.4375 61.5925 20.3125C60.7175 21.1875 60.28 22.25 60.28 23.5C60.28 24.75 60.7175 25.8125 61.5925 26.6875C62.4675 27.5625 63.53 28 64.78 28Z" fill="#151F00"/>
<path d="M89.5911 32.1694C88.6598 32.1694 87.8489 32.0262 87.1586 31.7399C86.4683 31.4536 85.9304 31.0297 85.5448 30.4682C85.1593 29.9067 84.9544 29.2132 84.93 28.3878H87.2508C87.2813 28.7803 87.3981 29.1079 87.6012 29.3707C87.8044 29.6334 88.0757 29.8303 88.415 29.9613C88.7544 30.0923 89.138 30.1578 89.5658 30.1578C89.9906 30.1578 90.3613 30.0957 90.6779 29.9717C90.9945 29.8476 91.2408 29.6736 91.4166 29.4497C91.5925 29.2258 91.6805 28.9672 91.6805 28.6739C91.6805 28.4058 91.6017 28.182 91.4442 28.0024C91.2867 27.8229 91.0588 27.6689 90.7605 27.5403C90.4621 27.4118 90.1004 27.2973 89.6753 27.1967L88.3956 26.8785C87.4103 26.6382 86.6383 26.2615 86.0795 25.7484C85.5207 25.2353 85.2413 24.5554 85.2413 23.7086C85.2413 23.0074 85.431 22.3938 85.8105 21.8678C86.19 21.3419 86.7092 20.9329 87.3682 20.641C88.0272 20.3491 88.7781 20.2031 89.621 20.2031C90.4822 20.2031 91.2331 20.3505 91.8737 20.6452C92.5143 20.94 93.0136 21.3485 93.3716 21.8709C93.7296 22.3933 93.9148 22.9952 93.9272 23.6766H91.6219C91.5767 23.2101 91.3768 22.8487 91.0224 22.5922C90.668 22.3358 90.1937 22.2076 89.5994 22.2076C89.195 22.2076 88.8498 22.2657 88.5636 22.3819C88.2774 22.4982 88.0596 22.6581 87.9104 22.8618C87.7611 23.0655 87.6865 23.2976 87.6865 23.5581C87.6865 23.8434 87.7734 24.0803 87.9473 24.2686C88.1211 24.4569 88.3503 24.6102 88.6347 24.7286C88.9192 24.8469 89.2246 24.9451 89.5508 25.0233L90.601 25.2803C91.0907 25.3917 91.5468 25.5415 91.9694 25.7295C92.392 25.9175 92.7619 26.1481 93.0789 26.4212C93.3959 26.6944 93.6426 27.0178 93.819 27.3916C93.9953 27.7654 94.0835 28.1965 94.0835 28.6847C94.0835 29.3904 93.9055 30.0048 93.5494 30.5279C93.1934 31.051 92.6806 31.4553 92.011 31.7409C91.3414 32.0266 90.5348 32.1694 89.5911 32.1694ZM99.6935 32.1706C98.8019 32.1706 98.0332 31.988 97.3875 31.6229C96.7418 31.2577 96.2458 30.7392 95.8996 30.0673C95.5534 29.3955 95.3803 28.599 95.3803 27.6778C95.3803 26.7792 95.5523 25.9908 95.8963 25.3127C96.2403 24.6347 96.7269 24.1057 97.356 23.7259C97.9851 23.3461 98.7251 23.1562 99.5758 23.1562C100.146 23.1562 100.679 23.2471 101.175 23.4289C101.67 23.6107 102.105 23.8848 102.479 24.2513C102.854 24.6177 103.146 25.0782 103.356 25.6327C103.566 26.1871 103.672 26.8385 103.672 27.5867V28.2444H96.3419V26.77H102.53L101.435 27.1653C101.435 26.7105 101.365 26.3153 101.226 25.9797C101.088 25.6441 100.882 25.3837 100.609 25.1986C100.337 25.0135 99.9978 24.921 99.5927 24.921C99.1876 24.921 98.844 25.0147 98.5618 25.2022C98.2796 25.3897 98.0649 25.6441 97.9176 25.9653C97.7703 26.2866 97.6966 26.6518 97.6966 27.0611V28.0991C97.6966 28.6043 97.7812 29.0287 97.9503 29.3723C98.1194 29.716 98.3573 29.9741 98.6639 30.1468C98.9705 30.3195 99.3261 30.4059 99.7308 30.4059C100.004 30.4059 100.253 30.367 100.476 30.2891C100.7 30.2112 100.892 30.096 101.053 29.9433C101.214 29.7905 101.337 29.6023 101.421 29.3786L103.539 29.7705C103.398 30.253 103.154 30.6742 102.806 31.0343C102.457 31.3943 102.021 31.6737 101.497 31.8725C100.972 32.0712 100.371 32.1706 99.6935 32.1706ZM107.872 32.1694C107.317 32.1694 106.82 32.0715 106.38 31.8759C105.941 31.6802 105.596 31.3889 105.344 31.0019C105.093 30.6149 104.967 30.1335 104.967 29.5578C104.967 29.0691 105.056 28.6614 105.234 28.3348C105.412 28.0083 105.656 27.7453 105.966 27.5459C106.276 27.3466 106.627 27.1949 107.021 27.0909C107.415 26.9868 107.828 26.9144 108.26 26.8736C108.764 26.8228 109.171 26.7749 109.481 26.73C109.79 26.6851 110.018 26.6149 110.162 26.5193C110.307 26.4237 110.38 26.2818 110.38 26.0936V26.0552C110.38 25.8059 110.327 25.595 110.221 25.4226C110.115 25.2502 109.96 25.118 109.757 25.0262C109.554 24.9344 109.304 24.8885 109.007 24.8885C108.709 24.8885 108.448 24.9339 108.224 25.0247C108 25.1155 107.817 25.2368 107.674 25.3885C107.531 25.5403 107.429 25.7106 107.366 25.8997L105.217 25.543C105.365 25.0342 105.614 24.6027 105.963 24.2484C106.312 23.8941 106.746 23.6234 107.265 23.4366C107.784 23.2497 108.367 23.1562 109.015 23.1562C109.483 23.1562 109.939 23.2118 110.382 23.3229C110.825 23.434 111.222 23.6078 111.574 23.8442C111.926 24.0807 112.205 24.3865 112.412 24.7616C112.619 25.1367 112.723 25.5894 112.723 26.1198V32H110.5V30.7872H110.423C110.282 31.0578 110.094 31.297 109.86 31.5047C109.626 31.7124 109.344 31.8751 109.015 31.9928C108.686 32.1105 108.305 32.1694 107.872 32.1694ZM108.532 30.5264C108.901 30.5264 109.225 30.4529 109.504 30.3061C109.783 30.1592 110.002 29.961 110.16 29.7114C110.318 29.4618 110.397 29.1839 110.397 28.8775V27.9324C110.325 27.9804 110.22 28.0254 110.081 28.0674C109.941 28.1095 109.786 28.1471 109.615 28.1803C109.443 28.2136 109.274 28.2424 109.107 28.2668C108.94 28.2912 108.791 28.3127 108.661 28.3311C108.374 28.37 108.12 28.436 107.902 28.5291C107.684 28.6222 107.514 28.7467 107.393 28.9027C107.273 29.0586 107.212 29.254 107.212 29.4889C107.212 29.715 107.269 29.9051 107.383 30.059C107.497 30.2129 107.653 30.3292 107.851 30.4081C108.049 30.4869 108.275 30.5264 108.532 30.5264ZM114.72 32V23.2656H116.99V24.7866H117.084C117.243 24.2482 117.511 23.8407 117.888 23.5641C118.266 23.2874 118.7 23.1491 119.189 23.1491C119.31 23.1491 119.441 23.1559 119.58 23.1695C119.719 23.1832 119.841 23.2025 119.947 23.2273V25.3207C119.843 25.2849 119.692 25.256 119.493 25.2337C119.294 25.2115 119.108 25.2004 118.934 25.2004C118.577 25.2004 118.256 25.2778 117.971 25.4325C117.687 25.5873 117.465 25.8016 117.304 26.0754C117.143 26.3491 117.063 26.667 117.063 27.0291V32H114.72ZM124.75 32.1706C123.874 32.1706 123.116 31.9824 122.478 31.606C121.839 31.2296 121.347 30.7036 121.001 30.0279C120.655 29.3522 120.482 28.5665 120.482 27.6706C120.482 26.7676 120.655 25.9777 121.001 25.3008C121.347 24.6239 121.839 24.0973 122.478 23.7209C123.116 23.3445 123.874 23.1562 124.75 23.1562C125.27 23.1562 125.748 23.2236 126.185 23.3583C126.622 23.493 127.01 23.6857 127.348 23.9364C127.686 24.1871 127.964 24.4918 128.182 24.8503C128.401 25.2089 128.551 25.612 128.635 26.0597L126.456 26.4678C126.408 26.2411 126.334 26.0375 126.237 25.857C126.139 25.6765 126.019 25.5222 125.878 25.394C125.737 25.2658 125.574 25.1682 125.389 25.1011C125.204 25.0341 124.999 25.0005 124.775 25.0005C124.357 25.0005 124.008 25.1128 123.726 25.3373C123.443 25.5618 123.23 25.8737 123.086 26.2728C122.941 26.672 122.869 27.1351 122.869 27.6622C122.869 28.1817 122.941 28.6418 123.086 29.0426C123.23 29.4433 123.443 29.7575 123.726 29.985C124.008 30.2126 124.357 30.3264 124.775 30.3264C125.002 30.3264 125.209 30.2915 125.396 30.2218C125.583 30.1521 125.749 30.0513 125.894 29.9193C126.039 29.7874 126.161 29.6266 126.259 29.4371C126.357 29.2477 126.428 29.0357 126.474 28.8014L128.649 29.2053C128.568 29.6662 128.418 30.0786 128.198 30.4423C127.979 30.8061 127.7 31.1171 127.362 31.3755C127.025 31.6338 126.635 31.8309 126.195 31.9668C125.754 32.1027 125.272 32.1706 124.75 32.1706ZM132.602 26.9428V32H130.259V20.3594H132.559V25.4461H132.368C132.597 24.7176 132.945 24.1538 133.412 23.7548C133.879 23.3558 134.481 23.1562 135.218 23.1562C135.824 23.1562 136.352 23.2879 136.803 23.5512C137.254 23.8145 137.604 24.1917 137.852 24.6829C138.101 25.1741 138.226 25.7614 138.226 26.4447V32H135.879V26.853C135.879 26.3105 135.739 25.885 135.459 25.5765C135.179 25.268 134.793 25.1138 134.298 25.1138C133.969 25.1138 133.676 25.186 133.42 25.3303C133.164 25.4746 132.964 25.6826 132.819 25.9542C132.674 26.2258 132.602 26.5553 132.602 26.9428Z" fill="#151F00"/>
</svg>
